<?xml version="1.0" encoding="UTF-8"?> <svg xmlns="http://www.w3.org/2000/svg" id="Calque_1" data-name="Calque 1" viewBox="0 0 504 168"><defs><style>.cls-1{fill:#ded6d4;}.cls-2{fill:#8b318c;}.cls-3{fill:#484095;}.cls-4{fill:#0dace7;}.cls-5{fill:#aecb00;}.cls-6{fill:#ffde00;}.cls-7{fill:#f28600;}.cls-8{fill:#eb4d51;}.cls-9{fill:#212121;}.cls-10{fill:#fff;}</style></defs><title>ELEMENTS HAUTE GARONNE</title><path class="cls-1" d="M.44433,23.47562l24,128a20.00065,20.00065,0,0,0,21,16l425.4902-23.25a19.87985,19.87985,0,0,0,18.83-17l13.95-104.75c1.56-11.67-7.82-22-20-22H20.25434C7.69433.47562-1.79567,11.47562.44433,23.47562Z"></path><path class="cls-2" d="M203.60454,75.20562h-37.49v13.07h37.49Z"></path><path class="cls-3" d="M246.53455,75.20562h-37.49v13.07h37.49Z"></path><path class="cls-4" d="M289.46454,75.20562h-37.49v13.07h37.49Z"></path><path class="cls-5" d="M332.39454,75.20562h-37.49v13.07h37.49Z"></path><path class="cls-6" d="M375.33454,75.20562h-37.48v13.07h37.48Z"></path><path class="cls-7" d="M418.27454,75.20562h-37.49v13.07h37.49Z"></path><path class="cls-8" d="M461.20453,75.20562h-37.49v13.07h37.49Z"></path><path class="cls-9" d="M187.85454,62.62562h-4a.72054.72054,0,0,1-.54-.2102.71077.71077,0,0,1-.162-.2478.72778.72778,0,0,1-.048-.292v-12.4h-11.49v12.4a.7113.7113,0,0,1-.049.292.71869.71869,0,0,1-.701.458h-4a.72058.72058,0,0,1-.54-.2102.71091.71091,0,0,1-.162-.2478.72777.72777,0,0,1-.048-.292v-28.4a.8097.8097,0,0,1,.75-.75h4a.80967.80967,0,0,1,.75.75v11.16h11.5v-11.16a.80025.80025,0,0,1,.75-.75h4a.80967.80967,0,0,1,.75.75v28.4c.12.37-.25.75-.75.75"></path><path class="cls-9" d="M214.20455,62.62551h-4.37a.80946.80946,0,0,1-.75-.75l-1.75-7.62h-9.22l-1.87,7.62a1.169,1.169,0,0,1-.75.75h-4.38a.68951.68951,0,0,1-.74-.63v-.25l6.6-25.27a5.84995,5.84995,0,0,1,11.24,0l6.62,25.23v.25a.58883.58883,0,0,1-.172.4587.583.583,0,0,1-.21.1355.58909.58909,0,0,1-.248.0358Zm-10.86-24.86c-.13-.5-.25-.63-.63-.63s-.5.13-.62.63l-2.88,12h7.12Z"></path><path class="cls-9" d="M226.70455,62.99562c-6.5,0-11.12-2.75-11.12-11.37v-18.15a.80025.80025,0,0,1,.75-.75h4a.81113.81113,0,0,1,.78.75v18.15c0,4.62,1.12,6.75,5.49,6.75s5.5-2.13,5.5-6.75v-18.15a.80025.80025,0,0,1,.75-.75h4a.8097.8097,0,0,1,.75.75v18.15c.25,8.5-4.38,11.37-10.87,11.37"></path><path class="cls-9" d="M260.05454,37.38552h-7v24.49a.71973.71973,0,0,1-.74.75h-4a.72049.72049,0,0,1-.54-.21019.71651.71651,0,0,1-.21-.53981v-24.49h-7a.69881.69881,0,0,1-.75-.62v-3.13a.80943.80943,0,0,1,.75-.74h19.74a.8.8,0,0,1,.75.74v3.13a.99938.99938,0,0,1-1,.62Z"></path><path class="cls-9" d="M278.79453,62.37572a31.539,31.539,0,0,1-7.62.5c-5.25,0-9.24-1.38-9.24-8.25v-14c0-6.87,4-8.24,9.24-8.24a38.28639,38.28639,0,0,1,7.62.5.94142.94142,0,0,1,.87.62v2.75a.711.711,0,0,1-.049.29189.719.719,0,0,1-.701.45811h-8.24c-2.37,0-3.25.75-3.25,3.5v4.37h10.87a.71716.71716,0,0,1,.701.458.71057.71057,0,0,1,.049.292v2.85a.71038.71038,0,0,1-.049.2919.71907.71907,0,0,1-.701.4581h-10.87v5.37c0,2.62.88,3.5,3.25,3.5h8.24a.71722.71722,0,0,1,.701.458.71131.71131,0,0,1,.049.292v2.63a.70983.70983,0,0,1-.5.88Z"></path><path class="cls-9" d="M290.41456,52.25552h-7.87a.69912.69912,0,0,1-.75-.63v-2.5a.80976.80976,0,0,1,.75-.75h7.87a.72909.72909,0,0,1,.536.21361.73342.73342,0,0,1,.214.53639v2.5C291.28455,51.87551,290.91456,52.25552,290.41456,52.25552Z"></path><path class="cls-9" d="M312.64454,62.24562a51.57137,51.57137,0,0,1-8.74.75c-4.37,0-10.74-2.87-10.74-12.37v-5.74c0-9.5,6.12-12.37,10.86-12.37a50.1277,50.1277,0,0,1,8.62.75.80048.80048,0,0,1,.75.75v2.75a.69983.69983,0,0,1,.021.277.68626.68626,0,0,1-.088.2636.69768.69768,0,0,1-.433.3294h-.37c-1.88-.12-4.62-.37-8.5-.37-2.74,0-5.24,1.87-5.24,7.62v5.74c0,5.75,2.75,7.62,5.12,7.62,1.5,0,2.75,0,4-.12v-10.25a.80965.80965,0,0,1,.75-.75h4a.71726.71726,0,0,1,.701.4581.71057.71057,0,0,1,.049.2919v13.5a.746.746,0,0,1-.015.3257.736.736,0,0,1-.153.2878.73957.73957,0,0,1-.582.2565"></path><path class="cls-9" d="M339.00455,62.62551h-4.25a.80965.80965,0,0,1-.75-.75l-1.89-7.62h-9.24l-1.86,7.62a1.13212,1.13212,0,0,1-.75.75h-4.24a.6993.6993,0,0,1-.75-.63v-.25l6.62-25.27a5.85017,5.85017,0,0,1,11.22,0l6.62,25.23v.25a.78044.78044,0,0,1-.75.63Zm-10.89-24.86c-.12-.5-.25-.63-.62-.63s-.5.13-.63.63l-2.87,12h7.12Z"></path><path class="cls-9" d="M362.74454,62.62562h-4.88c-.37-.13-.75-.38-.75-.75l-5.74-10.75h-.63c-1,0-2.62-.12-3.62-.12v10.87a.80952.80952,0,0,1-.75.75h-4.12a.72064.72064,0,0,1-.702-.458.72718.72718,0,0,1-.048-.292v-27.74a1.16965,1.16965,0,0,1,1.25-1.24,54.729,54.729,0,0,1,7.87-.5c6.24,0,11.62,2.24,11.62,9.11v.38a8.20973,8.20973,0,0,1-5.5,8.24l6.37,11.75c0,.12.13.25.13.37a.55154.55154,0,0,1-.5.38Zm-6.12-21.15c0-3-2-4.24-6-4.24-.88,0-2.87.12-3.62.12v9c.62,0,2.87.12,3.62.12,4.12,0,6-1.12,6-4.62Z"></path><path class="cls-9" d="M375.60456,62.99562c-6.62,0-11.49-3.75-11.49-12.62v-5.49c0-8.87,4.87-12.62,11.49-12.62s11.51,3.75,11.51,12.62v5.49c0,8.87-4.88,12.62-11.5,12.62Zm5.88-18c0-5.24-1.87-7.62-5.87-7.62s-5.87,2.25-5.87,7.62v5.48c0,5.25,1.88,7.62,5.87,7.62s5.87-2.37,5.87-7.62Z"></path><path class="cls-9" d="M411.21454,62.62551h-4a2.09966,2.09966,0,0,1-2.5-1.5l-8.87-19.65c0-.12-.25-.24-.37-.37s-.25.13-.25.37v20.27a.80974.80974,0,0,1-.75.75h-3.5a.72064.72064,0,0,1-.702-.458.72732.72732,0,0,1-.048-.292v-27.48a1.65,1.65,0,0,1,1.62-1.62h4.37a1.62094,1.62094,0,0,1,1.75,1.24l9.37,20.74c0,.13.13.25.38.38s.25-.25.25-.38v-21.15a.72013.72013,0,0,1,.75-.75h3.5a.721.721,0,0,1,.74.75v27.52a1.67982,1.67982,0,0,1-1.74,1.63Z"></path><path class="cls-9" d="M437.94455,62.62551h-4a2.10967,2.10967,0,0,1-2.5-1.5l-8.87-19.65c0-.12-.25-.24-.37-.37s-.25.13-.25.37v20.27a.80967.80967,0,0,1-.75.75h-3.37a.72063.72063,0,0,1-.54-.2102.71657.71657,0,0,1-.21-.5398v-27.48a1.65,1.65,0,0,1,1.62-1.62h4.41a1.62094,1.62094,0,0,1,1.75,1.24l9.37,20.74c0,.13.13.25.38.38s.25-.25.25-.38v-21.15a.72013.72013,0,0,1,.75-.75h3.37a.717.717,0,0,1,.701.4581.71087.71087,0,0,1,.049.2919v27.52a1.88139,1.88139,0,0,1-1.75,1.63"></path><path class="cls-9" d="M460.42453,62.37562a31.50867,31.50867,0,0,1-7.62.5c-5.24,0-9.24-1.38-9.24-8.25v-14c0-6.87,4-8.24,9.24-8.24a38.24148,38.24148,0,0,1,7.62.5.70042.70042,0,0,1,.75.62v2.75a.71087.71087,0,0,1-.049.2919.71906.71906,0,0,1-.701.4581h-8.24c-2.37,0-3.12.75-3.12,3.5v4.37h10.87a.72087.72087,0,0,1,.74.75v2.85a.72.72,0,0,1-.74.75h-10.82v5.37c0,2.62.87,3.5,3.12,3.5h8.24a.71719.71719,0,0,1,.701.458.71106.71106,0,0,1,.049.292v2.63a.70981.70981,0,0,1-.5.88Z"></path><path class="cls-9" d="M180.94454,101.73562v2.28h-6.08v16.98h-2.79v-16.85h-5.96v-2.29h14.83Z"></path><path class="cls-9" d="M206.04455,111.47562a11.99038,11.99038,0,0,1,.76-4.44,9.08105,9.08105,0,0,1,2-3.17,7.35106,7.35106,0,0,1,2.91-1.9,10.31713,10.31713,0,0,1,7.1,0,7.38224,7.38224,0,0,1,2.92,1.9,9.24485,9.24485,0,0,1,2,3.17,11.76355,11.76355,0,0,1,.76,4.44,11.08219,11.08219,0,0,1-.76,4.31,9.24494,9.24494,0,0,1-2,3.17,7.39314,7.39314,0,0,1-2.92,1.9,10.3169,10.3169,0,0,1-7.1,0,6.5376,6.5376,0,0,1-2.91-1.9,9.08114,9.08114,0,0,1-2-3.17A11.31785,11.31785,0,0,1,206.04455,111.47562Zm2.79,0a8.33315,8.33315,0,0,0,.51,3.17,6.32306,6.32306,0,0,0,1.26,2.41,6.1931,6.1931,0,0,0,2,1.52,7.3488,7.3488,0,0,0,5.33,0,7.72763,7.72763,0,0,0,2-1.52,7.28383,7.28383,0,0,0,1.27-2.41,13.04828,13.04828,0,0,0,.51-3.17,8.3524,8.3524,0,0,0-.51-3.17,6.12048,6.12048,0,0,0-1.27-2.41,6.00828,6.00828,0,0,0-2-1.52,7.218,7.218,0,0,0-5.33,0,6.19324,6.19324,0,0,0-2,1.52,7.25025,7.25025,0,0,0-1.26,2.41A10.79525,10.79525,0,0,0,208.83454,111.47562Z"></path><path class="cls-9" d="M258.52454,121.47562a8.5199,8.5199,0,0,1-3.3-.63,6.003,6.003,0,0,1-2.28-1.65,5.59767,5.59767,0,0,1-1.27-2.41,11.21059,11.21059,0,0,1-.38-3v-12.18h2.66v11.79a5.71738,5.71738,0,0,0,1.27,4.18,4.49678,4.49678,0,0,0,3.3,1.27,5.14284,5.14284,0,0,0,1.9-.38,5.34368,5.34368,0,0,0,1.52-1,3.99886,3.99886,0,0,0,.89-1.78,7.17965,7.17965,0,0,0,.38-2.53v-11.8h2.66v12.17a11.95494,11.95494,0,0,1-.38,3,5.76855,5.76855,0,0,1-1.38,2.45,7.64166,7.64166,0,0,1-2.29,1.64,4.77713,4.77713,0,0,1-3.29.89"></path><path class="cls-9" d="M302.76453,113.01562c.25.38.63.89,1.14,1.52s.89,1.27,1.39,2a21.626,21.626,0,0,1,1.4,2.28,21.70205,21.70205,0,0,1,1.26,2.28h-2.91a18.63508,18.63508,0,0,0-1.27-2.15,21.78818,21.78818,0,0,0-1.27-2c-.38-.6-.88-1.27-1.26-1.9s-.89-1.14-1.14-1.52h-3.93v7.6h-2.67v-19c.77-.13,1.65-.26,2.54-.38a17.38956,17.38956,0,0,1,2.53-.13,10.76357,10.76357,0,0,1,6.22,1.52,5.34355,5.34355,0,0,1,2.15,4.57,5.68572,5.68572,0,0,1-1,3.29,6.87893,6.87893,0,0,1-3.17,2Zm-4.05-9.02a14.97462,14.97462,0,0,0-2.66.13v7.22h1.9a17.119,17.119,0,0,0,2.54-.12,7.11549,7.11549,0,0,0,1.9-.51,2.62668,2.62668,0,0,0,1.14-1.14,4.30228,4.30228,0,0,0,.38-1.91,3.7158,3.7158,0,0,0-.38-1.77,2.52637,2.52637,0,0,0-1.14-1.14,6.3495,6.3495,0,0,0-1.65-.63,10.00058,10.00058,0,0,0-2-.13"></path><path class="cls-9" d="M336.35456,101.73562h-2.66v19.27h2.66Z"></path><path class="cls-9" d="M368.42453,119.22562c2.79,0,4.18-1,4.18-2.91a2.75591,2.75591,0,0,0-.38-1.53,8.039,8.039,0,0,0-1-1.14,4.39869,4.39869,0,0,0-1.52-.76c-.64-.12-1.14-.5-1.78-.63a12.44672,12.44672,0,0,1-2-.76,5.002,5.002,0,0,1-1.64-1.14,3.51391,3.51391,0,0,1-1.15-1.52,5.34886,5.34886,0,0,1-.38-2,4.84175,4.84175,0,0,1,1.78-3.93,7.75769,7.75769,0,0,1,4.82-1.4,12.11308,12.11308,0,0,1,3.16.38,9.982,9.982,0,0,1,2.16.77l-.89,2.15a8.1004,8.1004,0,0,0-1.77-.76,8.53216,8.53216,0,0,0-2.66-.38,4.64521,4.64521,0,0,0-1.4.13,2.32272,2.32272,0,0,0-1.14.5,1.74851,1.74851,0,0,0-.76.89,2.10407,2.10407,0,0,0-.25,1.27,3.20042,3.20042,0,0,0,.25,1.27,2.86392,2.86392,0,0,0,.89.88,10.25319,10.25319,0,0,0,1.26.76,6.38373,6.38373,0,0,0,1.65.64,19.73815,19.73815,0,0,1,2.28,1c.64.38,1.27.76,1.78,1.14a4.81072,4.81072,0,0,1,1.14,1.65,6.17443,6.17443,0,0,1,.38,2.28,4.58181,4.58181,0,0,1-1.9,3.93,9.00515,9.00515,0,0,1-5.2,1.4,11.21345,11.21345,0,0,1-2.15-.13c-.64-.13-1.27-.25-1.78-.38a3.81241,3.81241,0,0,1-1.27-.51,5.95831,5.95831,0,0,1-.88-.38l.76-2.28a9.77713,9.77713,0,0,0,1.9.76,7.23788,7.23788,0,0,0,3.55.76"></path><path class="cls-9" d="M410.25455,118.47562a6.35314,6.35314,0,0,0-.76-1.65c-.25-.63-.63-1.39-1-2.28s-.76-1.65-1.14-2.41-.76-1.65-1.14-2.41-.63-1.39-1-2a6.89642,6.89642,0,0,0-.76-1.39c-.25,2.16-.38,4.56-.51,7.1s-.25,5.2-.38,7.73h-2.66c.13-1.65.13-3.42.25-5.07s.26-3.42.38-5.07l.38-4.82c.13-1.52.26-3,.51-4.43h2.41c.51.76,1,1.77,1.65,2.91s1.14,2.28,1.77,3.55,1.14,2.41,1.65,3.68,1,2.28,1.52,3.29c.51-1,.89-2.15,1.52-3.29a33.35114,33.35114,0,0,0,1.65-3.68,31.73692,31.73692,0,0,1,1.77-3.55c.63-1.14,1.14-2,1.65-2.91h2.41c.63,6.21,1.14,12.67,1.39,19.26h-2.7c-.12-2.66-.25-5.19-.38-7.73s-.25-4.94-.5-7.1c-.13.26-.38.76-.77,1.4s-.63,1.27-1,2-.76,1.52-1.14,2.4-.76,1.65-1.14,2.41-.64,1.52-1,2.28a9.26467,9.26467,0,0,1-.76,1.65h-2.15Z"></path><path class="cls-9" d="M448.79453,121.12562v-19.39h11.78v2.28h-9.12v5.7h8.11v2.28h-8.11v6.72h9.76v2.28h-12.42Z"></path><path class="cls-10" d="M133.41454,104.76562c.87-1.73,4.45-7.39991,4.45-7.39991-13.09,2-32.1,7.15991-33,8.25991s-2.84,5.57-2.59,8.16,5.68,2.09,8.77,1.47,9.25-3.94,9.25-3.94c-4.81,13.45-13.33,41.47-27.9002,40.36-14.57-1.11-3.66-33.95,4.72-54.19989,8.38019-20.25,21.53019-41.56,26.16019-40.6,7.78,1.61,0,26.53,8.19,29.48,3.66-6.53,5.73-16.83,5-26.92s-5.15-14.08-9.35-14.8-20-1.95-40.36019,46.92c-20.36,48.86989-10.23,65.8299,4.82,66.9199a18.47109,18.47109,0,0,0,16.17019-7.79c-1.8,5-2.78,9.51-2.47,13.46l9.33-.51c2.07-6,15.11-55.29,15.11-55.29C131.19454,108.23562,132.55454,106.50562,133.41454,104.76562Z"></path><path class="cls-10" d="M72.19434,44.17562c4.39-13.13,7.8-24.8,9.86-32.38,0,0-2.33-2.19-3.45-3.27a3.65006,3.65006,0,0,0-3.49-.9,12.76,12.76,0,0,0-4.44,2,16.919,16.919,0,0,0-1.84,4.94c-2.89,12.21-5.82,23-8.78,32.78-14,3.73-24.1,6.59-24.1,6.59-2.64-3.46-13.84-7.46-13.38-2.46s.49,5.56.64,7.76c.16,2.48,4.78,6.29,16.77,4.58,2.88-.43,8.62-1.69,16-3.51-8.37,24.88-17.07,43.54-26.13,65.08,14.1-10.22,27.7-40.33,37.79-68.13,5.6-1.51,11.66-3.22,17.85-5.05-5.38,12.88-10.48,25.86-14.9,37.38-2.6,5.89-2.72,10.37-1.86,12.89.76,2.15,1.61,4.56,6.67,7.16,1.36-7.53,17.62-43.6,23.43-59.91.21-.57.43-1.17.65-1.79,11.0802-3.56,21.8402-7.39,30.4902-11.12l4.06-5.94c-8,1-18.9,3.14-30.46,5.74,4.71-13,10.37-28.37,13.21-35.89h-5.67c-6.76,10.49-13.6202,24.21-20.11019,38.75-6.4,1.54-12.78,3.13-18.81,4.69"></path></svg> 