<?xml version="1.0" encoding="utf-8"?>
<!-- Generator: Adobe Illustrator 24.2.1, SVG Export Plug-In . SVG Version: 6.00 Build 0)  -->
<svg version="1.1" xmlns="http://www.w3.org/2000/svg" xmlns:xlink="http://www.w3.org/1999/xlink" x="0px" y="0px" width="710.5px"
	 height="433.1px" viewBox="0 0 710.5 433.1" style="enable-background:new 0 0 710.5 433.1;" xml:space="preserve">
<style type="text/css">
	.st0{display:none;}
	.st1{display:inline;}
	.st2{fill:#F5AA34;}
	.st3{fill:#4D4D4F;}
	.st4{fill:#F9A51A;}
	.st5{fill:#272727;}
</style>
<g id="Calque_1" class="st0">
	<g class="st1">
		<path class="st2" d="M378.6,2c0.5,0.5,1.1,1,1.6,1.5c4,4,8.1,8.1,12.1,12.1c8.3,8.2,16.5,16.3,24.8,24.5
			c7.9,7.8,15.8,15.6,23.7,23.4c4.8,4.8,9.7,9.5,14.7,14.3c2.1-3.2,4.2-6.3,6.3-9.5c3.1-4.7,6.1-9.4,9.1-14.1
			c4.4-6.8,8.8-13.5,13.3-20.2c0.5-0.7,1.7-1.3,2.6-1.4c1.2-0.1,2.1,0.8,2.5,2c4.2,11.5,8.3,23.1,12.6,34.6
			c3.8,10.5,7.7,21,11.6,31.5c4.3,11.7,8.6,23.3,12.8,35c3.3,8.9,6.5,17.9,9.8,26.8c2.9,7.9,5.8,15.8,8.6,23.6
			c0.6,1.7,0.3,3-0.8,3.7c-1.2,0.7-2.8,0.4-4-0.7c-10.7-10.5-21.3-21.1-31.9-31.6c-2.4-2.4-4.8-4.9-7.3-7.3c-8.1-8-16.2-16-24.3-24
			c-2.7-2.6-5.4-5.3-8.1-7.8c-0.8-0.8-0.8-1.3-0.2-2.2c3.2-4.8,6.4-9.7,9.5-14.5c0.2-0.3,0.5-0.6,0.7-0.9
			c7.4,7.3,14.8,14.5,22.4,21.9c-6.2-16.9-12.3-33.5-18.5-50.2c-2.2,3.3-4.3,6.6-6.4,9.8c-5.4,8.2-10.8,16.4-16.1,24.7
			c-6.4,9.8-12.8,19.5-19.2,29.3c-4.7,7.2-9.4,14.3-14,21.5c-4,6.1-7.9,12.3-11.9,18.4c-1.3,2-2.9,2.3-4.8,1.2
			c-6.8-3.9-13.7-7.9-20.5-11.8c-7.5-4.3-14.9-8.6-22.4-12.8c-6.6-3.8-13.3-7.5-19.9-11.3c-7.5-4.3-14.9-8.6-22.4-12.8
			c-6.6-3.8-13.3-7.5-19.9-11.3c-7.5-4.3-15-8.6-22.4-12.8c-2.5-1.4-2.4-1.4-4.7,0.5c-3.5,2.9-7.1,5.6-10.7,8.4
			c-3.5,2.8-7,5.5-10.5,8.3c-3.6,2.8-7.1,5.6-10.7,8.4c-3.5,2.8-7,5.5-10.5,8.3s-6.9,5.6-10.4,8.3s-7,5.4-10.5,8.2s-7,5.6-10.5,8.4
			c-3.6,2.9-7.3,5.7-10.9,8.6c-6,4.7-12.1,9.5-18.1,14.2c-1.5,1.2-2.9,2.4-4.5,3.6c-1.3,1-3,1-3.9,0.1c-1-0.8-1.1-2.5-0.3-3.9
			c4.1-7.6,8.2-15.2,12.3-22.8c3.5-6.4,6.9-12.9,10.4-19.3c3.5-6.5,7-12.9,10.5-19.4c3.4-6.3,6.8-12.5,10.1-18.8
			c3.5-6.4,6.9-12.9,10.4-19.3c3.5-6.5,7-13,10.5-19.4c1.6-2.9,3.1-5.7,4.7-8.6c0.9-1.5,2.4-1.9,3.9-1.1c4.9,2.8,9.8,5.6,14.7,8.4
			c3.9,2.2,7.8,4.5,11.8,6.8c0.5,0.3,0.9,0.6,1.5,1c-1.9,1.5-3.7,2.9-5.5,4.3c-3.1,2.5-6.3,4.9-9.4,7.5c-1.2,1-2.1,1.2-3.4,0.2
			c-1.4-1-3-1.8-4.6-2.7c-7.3,13.6-14.7,27.3-22,40.9c0.1,0.1,0.2,0.1,0.2,0.2c2.4-1.9,4.7-3.7,7.1-5.6c3.5-2.8,7-5.6,10.6-8.4
			c3.5-2.7,7-5.5,10.5-8.2c4.5-3.5,9.1-7.1,13.6-10.7c4.1-3.2,8.1-6.5,12.1-9.7c3.3-2.6,6.7-5.3,10-7.9c3.6-2.9,7.3-5.7,11-8.6
			c6-4.7,12.1-9.5,18.1-14.2c6.8-5.4,13.5-10.8,20.3-16.1c6.4-5.1,12.9-10.1,19.4-15.2c6.8-5.4,13.6-10.8,20.4-16.2
			c0.3-0.3,0.6-0.6,1-0.8C377,2,377.8,2,378.6,2z M444.7,94.5c-6.1-5.9-12.1-11.7-18-17.6c-8.3-8.2-16.6-16.4-24.9-24.6
			c-7.2-7.1-14.3-14.3-21.4-21.4c-1.4-1.4-2.9-2.6-4.3-3.9c-26.5,20.9-52.9,41.8-79.5,62.7c6.5,3.7,12.8,7.4,19.2,11
			c5.4,3.1,10.8,6,16.1,9.1c5.9,3.4,11.8,6.8,17.7,10.2c5.4,3.1,10.9,6.1,16.3,9.2c7.3,4.1,14.5,8.3,21.8,12.5
			c6,3.5,12.1,6.9,18.1,10.4c0.8,0.4,1,0.2,1.3-0.4c1.3-2,2.7-4.1,4-6.1c4.6-7.1,9.1-14.1,13.8-21.2
			C431.5,114.6,438,104.7,444.7,94.5z"/>
		<path class="st3" d="M2.7,239.5c9.5,0,19-0.1,28.5,0c5.6,0.1,10.9,1.4,15.6,4.7c4.6,3.3,7.3,7.7,8.5,13.2s0.7,10.8-1.6,15.9
			c-1.9,4.2-5,7.3-9.1,9.5c-3.8,2.1-7.8,3.3-12.1,3.5c-4.4,0.2-8.9,0.2-13.4,0.3c-0.5,0-1.1,0-1.7,0c0,6.7,0,13.2,0,20
			c-5,0-9.8,0-14.6,0C2.7,284.3,2.7,261.9,2.7,239.5z M17.3,273.5c4.2,0,8.3,0,12.4,0c2.6,0,4.9-0.8,7.1-2.3
			c3.5-2.3,4.8-6.8,3.7-11.1c-1-4-3.8-6.4-7.9-6.8c-4.7-0.5-9.5-0.3-14.2-0.4c-0.3,0-0.7,0.1-1,0.1
			C17.3,259.9,17.3,266.6,17.3,273.5z"/>
		<path class="st3" d="M296.2,239.6c4.3,0,8.5,0,12.8,0c0.4,0,0.9,0.3,1.1,0.6c5.4,6.9,10.7,13.9,16,20.9c4,5.2,7.9,10.4,11.8,15.6
			c0.9,1.2,2,2.4,3.1,3.8c0-13.7,0-27.3,0-40.9c4.9,0,9.7,0,14.6,0c0,22.3,0,44.5,0,66.9c-0.4,0-0.8,0.1-1.3,0.1
			c-3.2,0-6.5-0.1-9.7,0c-1.3,0.1-2-0.5-2.6-1.4c-4.7-6.2-9.4-12.3-14.1-18.5c-3.2-4.2-6.3-8.4-9.5-12.6c-2.5-3.3-5-6.5-7.7-10.1
			c0,14.4,0,28.4,0,42.5c-4.9,0-9.7,0-14.6,0C296.2,284.3,296.2,262,296.2,239.6z"/>
		<path class="st3" d="M189.9,282.6c5.4,8,10.8,15.9,16.3,24c-0.5,0-0.9,0-1.4,0c-4.8,0-9.6,0-14.5,0c-1,0-1.6-0.2-2.1-1.1
			c-4.2-6.5-8.6-12.9-12.9-19.3c-0.5-0.8-1-1.1-1.9-1.1c-3.4,0-6.8,0-10.4,0c0,7.2,0,14.2,0,21.4c-4.9,0-9.7,0-14.5,0
			c0-22.3,0-44.5,0-67c0.5,0,1,0,1.6,0c10.2,0,20.4-0.1,30.5,0c4.2,0,8.3,0.9,12,2.7c6.6,3.3,10.3,8.7,11.3,16
			c0.5,4.1,0.2,8.1-1.2,12c-2,5.5-5.9,9.3-11.3,11.6C190.9,282.1,190.5,282.3,189.9,282.6z M163.1,272c5.7,0,11.2,0.2,16.7-0.1
			c3.8-0.2,7.1-1.8,8.8-5.7c1.2-2.7,0.6-8.1-1.7-10.2c-2.3-2-4.8-3-7.7-3.1c-5-0.1-9.9,0-14.9,0c-0.4,0-0.9,0.1-1.3,0.1
			C163.1,259.4,163.1,265.6,163.1,272z"/>
		<path class="st3" d="M275.1,239.7c0,4.4,0,8.6,0,13c-11.9,0-23.7,0-35.6,0c0,4.6,0,9.1,0,13.7c10.5,0,20.9,0,31.4,0
			c0,4.4,0,8.7,0,13.1c-10.5,0-20.9,0-31.4,0c0,4.7,0,9.3,0,14c12.1,0,24.1,0,36.2,0c0,4.4,0,8.7,0,13.1c-16.9,0-33.8,0-50.8,0
			c0-22.3,0-44.5,0-66.9C241.6,239.7,258.3,239.7,275.1,239.7z"/>
		<path class="st3" d="M393.6,252.6c0,4.7,0,9.1,0,13.7c10.5,0,20.9,0,31.5,0c0,4.4,0,8.7,0,13.1c-10.4,0-20.9,0-31.4,0
			c0,4.7,0,9.3,0,14c12,0,24,0,36.2,0c0,4.4,0,8.7,0,13.1c-16.9,0-33.8,0-50.8,0c0-22.3,0-44.5,0-66.9c16.7,0,33.4,0,50.2,0
			c0,4.3,0,8.6,0,13C417.4,252.6,405.6,252.6,393.6,252.6z"/>
		<path class="st3" d="M450.3,306.5c0-22.3,0-44.6,0-66.9c16.7,0,33.4,0,50.2,0c0,4.3,0,8.6,0,13c-11.8,0-23.7,0-35.6,0
			c0,4.6,0,9.1,0,13.7c10.4,0,20.9,0,31.4,0c0,4.4,0,8.7,0,13.1c-10.5,0-20.9,0-31.4,0c0,4.7,0,9.3,0,14c12,0,24.1,0,36.2,0
			c0,4.4,0,8.7,0,13C484.2,306.5,467.3,306.5,450.3,306.5z"/>
		<path class="st3" d="M560.1,258.3c-4.4-3.2-9.1-5.6-14.4-6.4c-3.6-0.5-7.3-0.6-10.2,2.4c-2,2.1-1.5,6.1,0.8,7.8
			c3.3,2.3,7.1,3,10.8,4c5.5,1.6,11.1,3,15.8,6.5c3.7,2.8,5.9,6.3,6.5,11c0.6,4.1,0,8-1.5,11.8s-4.2,6.6-7.6,8.6
			c-5.5,3.2-11.6,4-17.9,3.6c-8.2-0.6-15.7-3.4-22.5-8.1c-1.1-0.8-2-1.7-2.9-2.6c2.9-3.5,5.8-6.9,8.7-10.3c3.4,2.8,6.9,5.2,11.1,6.6
			c5,1.6,10.1,2.5,15.1,0.2c3.6-1.7,4.3-5.6,2.1-8.4c-1.2-1.5-3.5-2.4-5.5-3.1c-5.1-1.8-10.4-3.2-15.6-4.8c-3.3-1.1-6.4-2.7-8.9-5.2
			c-2.5-2.6-3.7-5.8-4.2-9.4c-0.6-4.4,0-8.5,1.9-12.4c2.6-5.2,7.1-8.2,12.5-9.9c4.3-1.3,8.6-1.5,13.1-1c4.8,0.5,9.4,1.8,13.6,4
			c2.3,1.2,4.5,2.7,6.7,4.2C565.2,250.9,562.7,254.5,560.1,258.3z"/>
		<path class="st2" d="M612.2,296.1c3.4-3.3,6.8-6.5,10.1-9.6c2.1,1.7,3.9,3.6,6.1,4.9c4.8,2.9,9.9,4.2,15.5,1.9
			c2.8-1.2,4.2-3.3,4.6-6.1c0.4-3-0.7-5.6-3.2-7.4c-2.4-1.7-5.3-2.1-8.2-2.4c-2.3-0.2-4.7,0-7,0c-0.7,0-1.1-0.2-1.3-1
			c-0.5-2.5-1.1-4.9-1.8-7.3c-0.3-1,0.1-1.3,0.6-1.9c4.9-4.8,9.7-9.7,14.5-14.5c0.2-0.2,0.4-0.4,0.7-0.8c-8.9,0-17.6,0-26.4,0
			c0-4.3,0-8.5,0-12.8c15.1,0,30.2,0,45.5,0c0,3.6,0,7.2,0,10.8c0,0.2-0.2,0.5-0.4,0.7c-4,3.9-8,7.8-12.1,11.7c-1.5,1.4-3,2.7-4.4,4
			c2.8,1,5.7,1.7,8.3,2.9c5.5,2.7,8.7,7.1,9.5,13.3c0.6,4.6,0,8.9-2,13c-3,6.2-8.1,9.9-14.8,11.4c-7.9,1.8-15.5,0.9-22.9-2.4
			C619,302.6,615.5,299.8,612.2,296.1z"/>
		<path class="st3" d="M99.2,266.4c2.4-3.9,4.7-7.8,7.1-11.6c2.9-4.8,5.8-9.6,8.7-14.3c0.3-0.4,0.9-0.8,1.3-0.8
			c5.2-0.1,10.3,0,15.7,0c-0.5,0.9-0.8,1.6-1.2,2.3c-5.3,8.2-10.6,16.3-15.8,24.5c-2.7,4.3-5.4,8.5-8.1,12.8
			c-0.3,0.5-0.4,1.1-0.4,1.6c0,8,0,16,0,24c0,0.5,0,1.1,0,1.7c-4.9,0-9.6,0-14.6,0c0-0.5,0-1,0-1.5c0-7.6,0-15.3,0-22.9
			c0-1.3-0.2-2.5-1-3.6c-3.3-5.1-6.5-10.1-9.8-15.2c-4.8-7.5-9.5-14.9-14.3-22.4c-0.2-0.4-0.3-0.8-0.6-1.3c5.6,0,11,0,16.5,0
			c0.3,0,0.8,0.4,1,0.7C88.8,248.9,94,257.6,99.2,266.4z"/>
		<path class="st2" d="M707.7,306.5c-4.9,0-9.6,0-14.5,0c0-17.7,0-35.3,0-53.1c-4,1-7.8,1.9-11.8,2.8c-1-4-2-8-3.1-12.1
			c2.3-0.7,4.6-1.4,6.9-2.1c4.1-1.2,8.2-2.4,12.3-3.4c1.9-0.4,4-0.2,6-0.3c1.3,0,2.7,0,4.1,0C707.7,261.1,707.7,283.8,707.7,306.5z"
			/>
		<path class="st2" d="M486.5,433.2c0-5,0-9.9,0-15.2c-2.1,3.3-4,6.2-5.9,9.1c-1,1.6-1,1.6-2.1,0c-1.9-2.9-3.8-5.8-5.9-9
			c0,5.3,0,10.2,0,15.2c-2.7,0-5.2,0-7.7,0c0-9.3,0-18.5,0-27.9c2.6,0,5.2,0,7.8,0c0.4,0,0.8,0.6,1.1,1c1.9,3.1,3.8,6.2,5.9,9.4
			c1.4-2.2,2.7-4.4,4-6.5c0.6-1,1.2-2.1,1.9-3.1c0.3-0.4,1-0.8,1.6-0.9c2.4-0.1,4.8,0,7.3,0c0,9.4,0,18.6,0,27.9
			C491.9,433.2,489.3,433.2,486.5,433.2z"/>
		<path class="st2" d="M346.4,423.6c2.2,3.2,4.3,6.3,6.6,9.7c-3.2,0-6.1,0-8.9,0c-0.4,0-0.8-0.6-1.1-1c-1.2-1.7-2.5-3.4-3.4-5.2
			c-0.9-1.9-2.2-2.4-4.3-1.9c0,2.6,0,5.3,0,8.1c-2.8,0-5.4,0-8,0c0-9.3,0-18.5,0-27.9c0.6,0,1.2,0,1.9,0c4.1,0,8.2-0.1,12.2,0
			c3.2,0.1,6.4,0.7,8.5,3.5c0.9,1.2,1.8,2.8,2,4.3C352.3,417.7,351,421.5,346.4,423.6z M335.2,418.8c2.2-0.2,4.3-0.2,6.3-0.5
			c1.4-0.2,2.2-1.2,2.3-2.7c0-1.5-0.3-2.7-2-3c-2.2-0.3-4.4-0.5-6.6-0.8C335.2,414.4,335.2,416.5,335.2,418.8z"/>
		<path class="st2" d="M246.2,419.4c0.1,8.2-6.6,14.7-15.4,14.5c-8.3-0.2-14.9-6.3-14.7-15c0.3-8.1,6.4-14.2,15.3-14.2
			C239.7,404.8,246.3,410.8,246.2,419.4z M231.2,412.1c-4.1-0.3-6.6,2.9-6.9,7.1c-0.3,3.6,3.3,7.6,6.9,7.5c3.9-0.2,6.9-2.5,7-7.4
			C238.3,415.8,235.3,411.9,231.2,412.1z"/>
		<path class="st2" d="M545.2,412.2c-4.8,0-9.6,0-14.4,0c0,1.3,0,2.5,0,3.8c4.3,0,8.6,0,12.9,0c0,2.2,0,4.2,0,6.3
			c-4.3,0-8.5,0-12.9,0c0,1.4,0,2.7,0,4.2c4.8,0,9.6,0,14.4,0c0,2.3,0,4.5,0,6.8c-7.5,0-14.9,0-22.5,0c0-9.2,0-18.5,0-27.8
			c7.5,0,14.9,0,22.4,0C545.2,407.5,545.2,409.7,545.2,412.2z"/>
		<path class="st2" d="M273.4,405.3c2.4,0,5,0,7.7,0c0,0.6,0,1.1,0,1.6c0,4.5-0.1,8.9,0,13.4c0,1.8,0.2,3.6,1.7,5
			c1.5,1.3,3.2,1.5,5,1s2.9-1.9,3.1-3.7c0.2-1.4,0.3-2.7,0.3-4.1c0-4.4,0-8.7,0-13.1c2.7,0,5.3,0,7.9,0c0,0.4,0.1,0.7,0.1,1.1
			c0,5,0.1,9.9,0,14.9c-0.1,2.7-0.6,5.5-2.3,7.9c-1.8,2.6-4.4,3.7-7.2,4.3c-3.1,0.6-6.2,0.5-9.3-0.5c-4.3-1.5-6.8-4.6-7.1-9
			C273.1,417.9,273.4,411.7,273.4,405.3z"/>
		<path class="st2" d="M437.2,408.8c-1.2,1.7-2.3,3.2-3.3,4.7c-0.4,0.6-0.7,0.9-1.6,0.4c-2.1-1.3-4.3-2.4-6.8-2.3
			c-0.5,0-1.1,0.1-1.5,0.3c-0.5,0.2-1.1,0.7-1.1,1.1c0,0.5,0.4,1.3,0.8,1.5c1.9,0.7,4,1.2,6,1.8c2.4,0.7,4.9,1.4,6.6,3.5
			c1.3,1.6,2,3.5,1.5,5.5c-1.4,6-3.2,7.5-9.3,8.3c-5,0.7-9.5-0.7-13.7-3.3c-0.9-0.6-1.7-1.2-0.5-2.4c1.1-1.1,2-2.4,3.1-3.5
			c0.2-0.2,1-0.3,1.3-0.1c2.6,1.9,5.4,2.9,8.6,2.8c1.2,0,2.5-0.3,2.5-1.5c0-0.7-1.1-1.7-2-2c-2.2-0.8-4.5-1.2-6.7-1.9
			c-4.2-1.4-6.7-3.5-6.2-8.8c0.3-3.9,2.4-6.4,6.8-7.5c5-1.2,9.9-0.7,14.4,2.3C436.3,408,436.7,408.4,437.2,408.8z"/>
		<path class="st2" d="M190.4,412.4c-2.8,0-5.4,0-8.2,0c0,7,0,13.8,0,20.8c-2.7,0-5.3,0-8,0c0-6.8,0-13.7,0-20.7c-2.7,0-5.3,0-8,0
			c0-2.5,0-4.8,0-7.1c8.1,0,16.2,0,24.3,0C190.4,407.7,190.4,410,190.4,412.4z"/>
		<path class="st2" d="M387.2,433.2c-2.7,0-5.2,0-7.9,0c0-9.3,0-18.5,0-27.8c2.6,0,5.2,0,7.9,0C387.2,414.6,387.2,423.9,387.2,433.2
			z"/>
		<path class="st3" d="M295.3,355.2c4.1,2.1,3.7,4.6,3.1,6.9c-0.7,2.5-2.9,3.3-5.1,3.5c-3.7,0.2-7.4,0.1-11.2,0.1
			c0-6.7,0-13.2,0-19.7c3.9,0,7.8-0.1,11.7,0c1.5,0,3.5,2.1,3.7,3.4C297.8,351.6,297.8,353.8,295.3,355.2z M286,362.5
			c2.5-0.2,4.8-0.1,7-0.5c0.8-0.1,1.8-1.3,2-2.2c0.2-0.9-0.4-2.1-1.7-2.2c-2.4-0.2-4.9-0.3-7.3-0.5C286,359,286,360.6,286,362.5z
			 M285.9,354.2c2.3-0.2,4.4-0.3,6.5-0.7c0.6-0.1,1.4-1.4,1.4-2.1s-0.9-1.9-1.5-2c-2.1-0.4-4.2-0.4-6.4-0.6
			C285.9,350.7,285.9,352.2,285.9,354.2z"/>
		<path class="st3" d="M513.2,355.2c3.5,1.7,4.4,5,2.6,7.9c-1.1,1.7-2.9,2.4-4.7,2.5c-3.6,0.2-7.2,0.1-11,0.1c0-6.6,0-13.2,0-20
			c2.9,0,5.9-0.1,8.8,0c1.2,0,2.5,0.3,3.7,0.7c1.4,0.5,2.6,1.5,2.8,3.1C515.7,351.6,515.8,353.8,513.2,355.2z M503.6,362.4
			c1.7,0,3.3,0.1,4.8,0c1-0.1,2-0.3,3-0.5c1.1-0.3,1.5-1.1,1.4-2.3c-0.1-1.1-0.6-1.8-1.6-1.9c-2.5-0.2-5-0.3-7.6-0.4
			C503.6,359.1,503.6,360.6,503.6,362.4z M503.6,354.2c2.3-0.2,4.5-0.3,6.6-0.6c1.1-0.1,1.6-1.2,1.6-2.2s-0.6-2-1.7-2.1
			c-2.2-0.3-4.4-0.3-6.6-0.5C503.6,350.7,503.6,352.3,503.6,354.2z"/>
		<path class="st3" d="M660.8,345.9c3.7-1.3,4.8,1.6,6.4,3.6c2.3,2.9,4.6,5.9,7.1,9.2c0-4.5,0-8.6,0-12.9c1.3,0,2.5,0,3.9,0
			c0,6.5,0,13.1,0,19.7c-2.6,0.9-3.9-0.6-5.3-2.5c-2.6-3.6-5.4-7-8.3-10.8c0,4.6,0,9,0,13.4c-1.3,0-2.5,0-3.8,0
			C660.8,359,660.8,352.4,660.8,345.9z"/>
		<path class="st3" d="M616.7,358.3c1.7,2.4,3.3,4.7,5.2,7.3c-1.6,0-2.9,0-4.1,0c-0.3,0-0.7-0.3-0.9-0.6c-1.2-1.6-2.4-3.1-3.4-4.8
			c-0.7-1.2-1.6-1.7-2.9-1.5c-0.6,0.1-1.3,0-2,0c0,2.3,0,4.5,0,6.7c-1.3,0-2.5,0-3.8,0c0-6.5,0-13.1,0-20c4,0.2,8,0.2,11.9,0.6
			c2.1,0.2,4.1,2.6,4.4,4.5c0.5,3.2-0.6,5.6-2.9,7C617.6,357.8,617.1,358.1,616.7,358.3z M608.6,355.5c1.8,0,3.6,0.1,5.3,0
			c2-0.1,3.3-1.4,3.3-3.1c0-1.8-0.9-3-2.6-3.1c-2-0.1-3.9,0-6,0C608.6,351.3,608.6,353.3,608.6,355.5z"/>
		<path class="st3" d="M141.9,365.5c0-6.6,0-13.1,0-19.6c2.8-0.7,3.5-0.3,5.6,2.7c1.2,1.7,2.7,3.4,4,5.1c1.3,1.6,2.5,3.3,4,5.3
			c0-4.6,0-8.8,0-13.2c1.2,0,2.3,0,3.6,0c0,6.5,0,13.1,0,19.7c-1.9,0.5-3.3,0.2-4.5-1.6c-2.6-3.6-5.4-7-8.1-10.6
			c-0.2-0.3-0.5-0.6-0.9-1.2c0,4.7,0,9,0,13.4C144.2,365.5,143.1,365.5,141.9,365.5z"/>
		<path class="st3" d="M120.6,365.9c-5.3,0.5-10.7-4.4-10.4-10.7c0.3-5.1,4.4-10.1,10.9-9.8c5.6,0.2,10.1,4.3,10,10.5
			C131.1,361.1,126.9,366.4,120.6,365.9z M120.8,348.9c-3.8-0.4-6.7,3.1-6.6,6.6c0.1,4.4,2.9,6.8,6.5,7c3.4,0.2,6.5-3.2,6.5-6.9
			C127.3,352.3,124.1,348.6,120.8,348.9z"/>
		<path class="st3" d="M689.7,365.6c0-6.7,0-13.2,0-20c4.5,0.4,9.1-1,13.4,1.5c2.9,1.7,4.5,4.2,4.7,7.6c0.1,2.4-0.2,4.6-1.6,6.7
			c-1.7,2.5-4.1,3.8-6.9,4.1C696.1,365.9,692.9,365.6,689.7,365.6z M693.5,362.4c1.2,0,2.3,0,3.4,0c0.6,0,1.1-0.2,1.7-0.3
			c2.9-0.4,4.7-2.4,5.2-5.1c0.5-3.1-0.5-5.4-3.2-6.9c-2.2-1.3-4.7-0.6-7.1-0.7C693.5,353.7,693.5,357.9,693.5,362.4z"/>
		<path class="st3" d="M556.3,358.8c0,2.4,0,4.5,0,6.8c-1.2,0-2.3,0-3.4,0c0-6.5,0-13.1,0-19.9c2.8,0,5.8,0,8.7,0
			c1.1,0,2.2,0.3,3.3,0.5c3,0.6,4.2,3,4.3,5.6c0.1,2.5-0.7,4.7-3.3,5.8c-0.4,0.1-0.7,0.4-1.1,0.7c1.7,2.4,3.4,4.8,5.2,7.3
			c-1.5,0-2.7,0.1-3.9-0.1c-0.6-0.1-1.1-0.7-1.5-1.2c-1.1-1.5-2.2-3-3.2-4.5c-0.6-0.9-1.3-1.2-2.3-1.1
			C558.1,358.8,557.3,358.8,556.3,358.8z M556.4,355.5c1.8,0,3.4,0,5.1,0c2-0.1,3.7-1.4,3.8-2.9c0.1-1.4-1-3.1-2.6-3.2
			c-2.1-0.2-4.2,0-6.3,0C556.4,351.4,556.4,353.4,556.4,355.5z"/>
		<path class="st3" d="M406.9,217.5c4.3,1.8,8.3,3.6,12.5,5.3c-3.2,3-6.2,6-9.4,9c-0.8,0.8-1.7,1.5-2.5,2.2
			c-0.2,0.2-0.6,0.4-0.9,0.4c-3.4,0-6.8,0-10.5,0C399.8,228.7,403.3,223.1,406.9,217.5z"/>
		<path class="st3" d="M252.8,217.5c4.3,1.8,8.3,3.6,12.5,5.3c-3.2,3-6.2,6-9.3,9c-0.8,0.8-1.7,1.5-2.5,2.2
			c-0.2,0.2-0.6,0.4-0.9,0.4c-3.4,0-6.8,0-10.5,0C245.6,228.7,249.2,223.1,252.8,217.5z"/>
		<path class="st3" d="M309.3,345.7c5,0,9.8,0,14.7,0c0,1,0,2,0,3.2c-3.6,0-7.2,0-10.9,0c0,1.8,0,3.4,0,5.1c3.2,0,6.4,0,9.6,0
			c0,1.1,0,2.1,0,3.3c-3.2,0-6.4,0-9.7,0c0,1.7,0,3.3,0,5c3.6,0,7.2,0,10.9,0c0,1.2,0,2.2,0,3.3c-4.9,0-9.8,0-14.7,0
			C309.3,359,309.3,352.4,309.3,345.7z"/>
		<path class="st3" d="M83,345.7c1.3,0,2.5,0,3.7,0c0,2.7,0,5.4,0,8.2c3.1,0,6.1,0,9.3,0c0-2.7,0-5.4,0-8.2c1.2,0,2.3,0,3.5,0
			c0,6.6,0,13.1,0,19.8c-1.1,0-2.2,0-3.4,0c0-2.7,0-5.4,0-8.2c-3.1,0-6.1,0-9.3,0c0,2.7,0,5.4,0,8.2c-1.3,0-2.5,0-3.8,0
			C83,359,83,352.4,83,345.7z"/>
		<path class="st3" d="M541.9,365.6c-4.9,0-9.8,0-14.7,0c0-6.6,0-13.1,0-19.8c4.9,0,9.8,0,14.7,0c0,1,0,2,0,3.1c-3.7,0-7.4,0-11.2,0
			c0,1.8,0,3.4,0,5.1c3.3,0,6.6,0,9.9,0c0,1.1,0,2.1,0,3.3c-3.3,0-6.6,0-10,0c0,1.7,0,3.3,0,5c3.7,0,7.4,0,11.2,0
			C541.9,363.5,541.9,364.5,541.9,365.6z"/>
		<path class="st3" d="M27.1,345.7c1.3,0,2.5,0,3.9,0c0,3.2,0,6.4,0,9.5c0,1.2-0.1,2.5,0.1,3.7c0.4,2,2.9,3.9,4.7,3.7
			c2.9-0.3,4.7-2.1,4.7-4.8c0-4,0-7.9,0-12c1.3,0,2.5,0,3.9,0c0,4,0,8,0,12c0,0.9-0.3,1.8-0.5,2.7c-0.8,2.8-2.6,4.6-5.5,5.2
			c-2.4,0.5-4.8,0.4-7-0.6c-2.8-1.2-3.9-3.8-4.1-6.6C26.9,354.3,27.1,350.1,27.1,345.7z"/>
		<path class="st3" d="M333,365.5c1.1-2.6,2.3-5.3,3.4-7.9c1.6-3.6,3.2-7.2,4.6-10.8c0.5-1.4,1.5-1.1,2.5-1.1s1.8,0,2.2,1.1
			c1.9,4.5,3.9,9,5.8,13.5c0.7,1.7,1.5,3.4,2.3,5.3c-1.4,0-2.7,0-4.1,0c-0.5-1.3-1-2.7-1.7-3.9c-0.2-0.3-0.7-0.7-1-0.7
			c-2.5-0.1-5-0.1-7.4,0c-0.4,0-0.8,0.4-1.1,0.7c-0.3,0.3-0.4,0.8-0.5,1.2C336.7,366,336.7,366,333,365.5z M346.5,357.5
			c-1-2.4-2-4.7-3.1-7.2c-1.1,2.5-2,4.8-3.1,7.2C342.4,357.5,344.3,357.5,346.5,357.5z"/>
		<path class="st3" d="M651,365.5c-0.3,0.1-0.4,0.1-0.5,0.2c-3.6,0.2-3.6,0.2-5.3-4.3c0-0.1-0.1-0.3-0.2-0.5c-2.7,0-5.5,0-8.2,0
			c-0.4,0-0.9,0.3-1.1,0.7c-0.7,1.3-1.2,2.6-1.8,4c-1.2,0-2.5,0-3.9,0c2.9-6.7,5.8-13.2,8.7-19.8c0.2,0,0.3-0.1,0.4-0.1
			c3.4-0.1,3.3,0,4.6,3.2c1.5,3.7,3.2,7.4,4.8,11.1C649.3,361.7,650.1,363.5,651,365.5z M637.4,357.5c2.1,0,4.1,0,6.2,0
			c-1-2.4-2-4.7-3.1-7.2C639.4,352.9,638.4,355.1,637.4,357.5z"/>
		<path class="st3" d="M448.8,348c-0.7,1-1.3,1.9-1.8,2.6c-1.8-0.6-3.3-1.2-4.9-1.6c-0.7-0.2-1.7-0.2-2.3,0.2
			c-0.7,0.4-1.5,1.3-1.4,1.9c0.1,0.7,0.9,1.6,1.7,1.9c1.8,0.8,3.7,1.2,5.5,1.8c2.8,1,3.8,2.6,3.7,5.5c0,2.4-1.6,4.5-4,5.2
			c-4.2,1.1-8.1,0.2-11.6-2.8c0.8-0.9,1.5-1.8,2-2.5c1.9,0.8,3.5,1.6,5.2,2.2c0.9,0.3,1.9,0.1,2.8-0.1c1-0.2,1.7-0.8,1.7-2
			s-0.7-1.8-1.7-2.1c-1.4-0.4-2.8-0.8-4.2-1.2c-1.7-0.5-3.5-1-4.3-2.8c-1.6-3.8-0.5-7.3,3.8-8.5C442.6,344.7,445.8,345.7,448.8,348z
			"/>
		<path class="st3" d="M230.8,348.1c-0.6,0.9-1.3,1.8-1.8,2.5c-1.8-0.6-3.3-1.2-5-1.6c-0.7-0.2-1.7-0.1-2.3,0.3s-1.4,1.3-1.3,1.8
			c0.1,0.8,0.9,1.7,1.6,2c1.8,0.8,3.8,1.2,5.6,1.9c2.8,1,3.6,2.2,3.7,4.7c0.2,3-1.4,5-3.9,5.8c-3.7,1.3-8.9,0.2-11.6-2.9
			c0.7-0.9,1.4-1.7,1.9-2.4c1.9,0.8,3.5,1.7,5.3,2.3c1.2,0.4,2.5,0.2,3.6-0.6c1.4-1.1,1.4-2.7-0.2-3.4c-1.5-0.7-3.1-1-4.7-1.5
			c-1.2-0.4-2.4-0.9-3.4-1.6c-2.4-1.5-2.2-6.8,0.5-8.7C222.3,344.4,227.9,345.3,230.8,348.1z"/>
		<path class="st3" d="M70.8,360c0.7,0.8,1.4,1.6,2.2,2.4c-1.9,2.8-7,4.5-10.6,3.5c-5.2-1.5-7.5-5.2-7.7-9.3
			c-0.3-4.8,1.8-8.6,6.3-10.4c3.8-1.6,9.5-0.8,11.9,2.6c-0.8,0.9-1.5,1.8-2.3,2.7c-4.2-3.8-8.1-2.8-9.9-0.7
			c-2.7,3.1-2.7,6.5-0.2,9.9C62.5,363.3,66,363,70.8,360z"/>
		<path class="st3" d="M378.5,349.3c-2.1,0-4,0-6.1,0c0,5.4,0,10.8,0,16.3c-1.4,0-2.6,0-3.9,0c0-5.4,0-10.8,0-16.2
			c-2.1,0-4.1,0-6.2,0c0-1.2,0-2.3,0-3.5c5.4,0,10.7,0,16.2,0C378.5,346.9,378.5,348.1,378.5,349.3z"/>
		<path class="st3" d="M588.2,349.2c0,5.6,0,10.9,0,16.4c-1.2,0-2.3,0-3.5,0c0-5.4,0-10.7,0-16.2c-2.1,0-4.1,0-6.2,0
			c0-1.3,0-2.4,0-3.6c5.3,0,10.6,0,15.9,0c0,1.1,0,2.2,0,3.4C592.4,349.2,590.4,349.2,588.2,349.2z"/>
		<path class="st3" d="M240.7,349.3c0-1.3,0-2.4,0-3.6c5.3,0,10.5,0,15.9,0c0,1.1,0,2.2,0,3.5c-2,0-4,0-6.1,0c0,5.5,0,10.9,0,16.4
			c-1.2,0-2.3,0-3.5,0c0-5.3,0-10.7,0-16.3C244.8,349.3,242.8,349.3,240.7,349.3z"/>
		<path class="st3" d="M468.4,365.6c-1.3,0-2.4,0-3.6,0c0-5.4,0-10.7,0-16.2c-2.1,0-4.1,0-6.2,0c0-1.3,0-2.4,0-3.6
			c5.3,0,10.6,0,15.9,0c0,1.1,0,2.2,0,3.4c-2,0-4,0-6.1,0C468.4,354.7,468.4,360.1,468.4,365.6z"/>
		<path class="st3" d="M7.1,362.4c3.5,0,6.8,0,10.1,0c0,1.1,0,2.1,0,3.1c-4.6,0-9.2,0-13.9,0c0-6.6,0-13.1,0-19.7c1.2,0,2.4,0,3.7,0
			C7.1,351.2,7.1,356.7,7.1,362.4z"/>
		<path class="st2" d="M404.7,345.1c1,0,1.9,0,2.8,0c0,7,0,13.9,0,21c-0.9,0-1.8,0-2.8,0C404.7,359.2,404.7,352.2,404.7,345.1z"/>
		<path class="st2" d="M189.5,366.2c-1,0-1.9,0-2.8,0c0-7,0-13.9,0-21c0.9,0,1.8,0,2.8,0C189.5,352.1,189.5,359.1,189.5,366.2z"/>
		<path class="st3" d="M314.4,344.2c1-1.7,2-3.2,3.1-4.9c1.1,0.5,2.2,1,3.5,1.6C318.9,342.5,317.9,345.4,314.4,344.2z"/>
	</g>
</g>
<g id="Calque_2">
	<g>
		<g>
			<path class="st4" d="M545,184.7L489,32.3c-0.3-0.9-1.2-1.6-2.2-1.7c-1-0.1-1.9,0.3-2.5,1.2l-29,44.4L379,0.8
				c-0.9-0.9-2.4-1-3.5-0.2l-97.7,77.1l-16.3,12.8L220.5,123l23-42.8l6.5,3.7L266.2,71l-27.9-15.9c-0.6-0.4-1.3-0.4-2-0.2
				c-0.7,0.2-1.3,0.7-1.6,1.3l-69.1,128.2c-0.6,1.1-0.3,2.4,0.6,3.2c1,0.8,2.3,0.8,3.3,0.1l110.1-86.9l131,74.7
				c1.2,0.7,2.7,0.3,3.5-0.8l44.6-68.3L469.3,90l13.1-20l19,51.7l-23-22.7l-10.7,16.4l73,72.1c0.5,0.5,1.2,0.8,1.8,0.8
				c0.5,0,1-0.1,1.4-0.4C545,187.1,545.5,185.8,545,184.7z M406.5,151.1L295.8,87.9l80.1-63.2l68.7,67.9L406.5,151.1z"/>
			<g>
				<g>
					<path class="st4" d="M166.4,364.6v-20.9h2.7v20.9H166.4z"/>
					<path class="st4" d="M436.8,364.6v-20.9h2.7v20.9H436.8z"/>
				</g>
			</g>
			<g>
				<path class="st4" d="M173.8,410.8h-8.3V404h24.3v6.7h-8.3v21h-7.7V410.8z"/>
				<path class="st4" d="M215.8,418L215.8,418c0-8,6.4-14.5,15-14.5c8.6,0,14.9,6.4,14.9,14.3v0.1c0,8-6.4,14.4-15,14.4
					C222.1,432.3,215.8,425.9,215.8,418z M237.8,418L237.8,418c0-4.1-2.9-7.6-7.1-7.6c-4.2,0-7,3.4-7,7.4v0.1c0,4,2.9,7.5,7.1,7.5
					C235,425.4,237.8,422,237.8,418z"/>
				<path class="st4" d="M272.8,419.6V404h7.8v15.4c0,4,2,5.9,5.1,5.9c3.1,0,5.1-1.8,5.1-5.7V404h7.8v15.4c0,9-5.1,12.9-13,12.9
					S272.8,428.3,272.8,419.6z"/>
				<path class="st4" d="M326.8,404h13.1c4.2,0,7.2,1.1,9,3c1.6,1.6,2.5,3.7,2.5,6.5v0.1c0,4.2-2.3,7.1-5.7,8.5l6.6,9.7h-8.9
					l-5.6-8.4h-0.1h-3.3v8.4h-7.7V404z M339.5,417.3c2.6,0,4.1-1.3,4.1-3.3V414c0-2.2-1.6-3.3-4.2-3.3h-5v6.7H339.5z"/>
				<path class="st4" d="M379,404h7.7v27.7H379V404z"/>
				<path class="st4" d="M413.3,427.6l4.3-5.1c2.7,2.2,5.8,3.3,9,3.3c2.1,0,3.2-0.7,3.2-1.9v-0.1c0-1.1-0.9-1.8-4.7-2.7
					c-5.9-1.3-10.5-3-10.5-8.7v-0.1c0-5.1,4.1-8.9,10.7-8.9c4.7,0,8.4,1.3,11.4,3.7l-3.8,5.4c-2.5-1.8-5.3-2.7-7.8-2.7
					c-1.9,0-2.8,0.8-2.8,1.8v0.1c0,1.3,1,1.8,4.8,2.7c6.4,1.4,10.3,3.4,10.3,8.6v0.1c0,5.7-4.5,9-11.2,9
					C421.3,432.2,416.7,430.7,413.3,427.6z"/>
				<path class="st4" d="M464.7,404h8.1l6.6,10.7l6.6-10.7h8.1v27.7h-7.6v-15.9l-7.1,10.9h-0.2l-7-10.8v15.8h-7.5V404z"/>
				<path class="st4" d="M522.7,404H545v6.5h-14.7v4.2h13.3v6.1h-13.3v4.4H545v6.5h-22.3V404z"/>
			</g>
		</g>
		<g>
			<path class="st5" d="M27.9,284.9H16.7V305H1.9v-67h27.4c16,0,25.7,9.5,25.7,23.2v0.2C55,276.8,42.9,284.9,27.9,284.9z M40,261.4
				c0-6.6-4.6-10.2-12-10.2H16.7v20.5h11.7c7.4,0,11.7-4.4,11.7-10.2V261.4z"/>
			<path class="st5" d="M105.8,278.3V305H91v-26.4l-25.8-40.6h17.2l16,26.9l16.3-26.9h16.8L105.8,278.3z"/>
			<path class="st5" d="M188.6,305l-14.4-21.5h-11.6V305h-14.8v-67h30.7c15.8,0,25.3,8.3,25.3,22.1v0.2c0,10.8-5.8,17.6-14.4,20.8
				l16.4,23.9H188.6z M188.9,260.8c0-6.3-4.4-9.6-11.6-9.6h-14.7v19.3h14.9c7.2,0,11.3-3.8,11.3-9.5V260.8z"/>
			<path class="st5" d="M224.3,305v-67h50.6v13.1H239v13.6h31.6v13.1H239v14.1h36.4V305H224.3z M241.6,232.7l10.8-17l12.5,5.5
				l-12.3,11.5H241.6z"/>
			<path class="st5" d="M342.7,305l-32.5-42.6V305h-14.6v-67h13.6l31.4,41.3v-41.3h14.6v67H342.7z"/>
			<path class="st5" d="M378.6,305v-67h50.6v13.1h-35.9v13.6h31.6v13.1h-31.6v14.1h36.4V305H378.6z M395.8,232.7l10.8-17l12.5,5.5
				l-12.3,11.5H395.8z"/>
			<path class="st5" d="M449.9,305v-67h50.6v13.1h-35.9v13.6h31.6v13.1h-31.6v14.1H501V305H449.9z"/>
			<path class="st5" d="M545.1,305.9c-10.2,0-20.4-3.5-28.4-10.7l8.7-10.4c6,5,12.4,8.1,20,8.1c6,0,9.7-2.4,9.7-6.3v-0.2
				c0-3.7-2.3-5.7-13.5-8.5c-13.5-3.4-22.2-7.2-22.2-20.5v-0.2c0-12.2,9.8-20.2,23.5-20.2c9.8,0,18.1,3.1,24.9,8.5l-7.7,11.1
				c-5.9-4.1-11.8-6.6-17.4-6.6c-5.7,0-8.6,2.6-8.6,5.8v0.2c0,4.4,2.9,5.8,14.5,8.8c13.6,3.5,21.3,8.4,21.3,20.1v0.2
				C569.7,298.5,559.6,305.9,545.1,305.9z"/>
			<path class="st4" d="M616.2,249.9v-12.8h45.9v11.3l-17.2,16.4c9.3,1.6,18.2,6.4,18.2,19.1c0,12.9-9.3,22.3-24.5,22.3
				c-12.2,0-20.7-4.9-26.5-11.7l10.3-9.8c4.7,5.2,9.5,8.2,16.4,8.2c5.6,0,9.6-3.2,9.6-8.3c0-5.6-4.8-8.7-13.3-8.7H629l-2.3-9.5
				l16.2-16.3H616.2z"/>
			<path class="st4" d="M697.9,236.6h10.2V305h-14.7v-53.3l-11.8,2.9l-3.1-12.2L697.9,236.6z"/>
		</g>
		<g>
			<path class="st5" d="M1.4,363.9v-19.2h4.2v15.3h9.6v3.8H1.4z"/>
			<path class="st5" d="M30.4,364.2c-5.1,0-8.3-2.9-8.3-8.5v-10.9h4.2v10.8c0,3.1,1.6,4.7,4.1,4.7c2.6,0,4.1-1.6,4.1-4.6v-11h4.2
				v10.8C38.8,361.4,35.6,364.2,30.4,364.2z"/>
			<path class="st5" d="M56.8,364.2c-5.6,0-9.8-4.4-9.8-9.9v-0.1c0-5.4,4.1-9.9,10-9.9c3.6,0,5.8,1.2,7.6,3l-2.7,3.1
				c-1.5-1.3-3-2.2-4.9-2.2c-3.2,0-5.6,2.7-5.6,6v0.1c0,3.3,2.3,6,5.6,6c2.2,0,3.5-0.9,5-2.2l2.7,2.7
				C62.7,362.9,60.5,364.2,56.8,364.2z"/>
			<path class="st5" d="M84.7,363.9v-7.7H77v7.7h-4.2v-19.2H77v7.6h7.8v-7.6H89v19.2H84.7z"/>
			<path class="st5" d="M107.6,364.2c-5.9,0-10.2-4.4-10.2-9.9v-0.1c0-5.4,4.3-9.9,10.2-9.9c5.9,0,10.2,4.4,10.2,9.9v0.1
				C117.8,359.8,113.5,364.2,107.6,364.2z M113.4,354.3c0-3.3-2.4-6-5.8-6s-5.7,2.7-5.7,6v0.1c0,3.3,2.4,6,5.8,6
				S113.4,357.7,113.4,354.3L113.4,354.3z"/>
			<path class="st5" d="M139.7,363.9l-9.3-12.2v12.2h-4.2v-19.2h3.9l9,11.8v-11.8h4.2v19.2H139.7z"/>
			<path class="st5" d="M198.1,364.2c-2.9,0-5.8-1-8.1-3.1l2.5-3c1.7,1.4,3.5,2.3,5.7,2.3c1.7,0,2.8-0.7,2.8-1.8v-0.1
				c0-1.1-0.7-1.6-3.9-2.4c-3.9-1-6.4-2.1-6.4-5.9v-0.1c0-3.5,2.8-5.8,6.7-5.8c2.8,0,5.2,0.9,7.1,2.4l-2.2,3.2
				c-1.7-1.2-3.4-1.9-5-1.9c-1.6,0-2.5,0.7-2.5,1.7v0.1c0,1.3,0.8,1.7,4.1,2.5c3.9,1,6.1,2.4,6.1,5.7v0.1
				C205.2,362.1,202.3,364.2,198.1,364.2z"/>
			<path class="st5" d="M221.8,348.6v15.3h-4.2v-15.3h-5.8v-3.9h15.9v3.9H221.8z"/>
			<path class="st5" d="M257.6,363.9h-9.1v-19.2h8.9c3.9,0,6.3,1.9,6.3,5v0.1c0,2.2-1.1,3.4-2.5,4.1c2.2,0.8,3.6,2.1,3.6,4.7v0.1
				C264.8,362.2,261.9,363.9,257.6,363.9z M259.5,350.4c0-1.3-1-2-2.8-2h-4.2v4.1h3.9C258.3,352.5,259.5,351.9,259.5,350.4
				L259.5,350.4z M260.6,358.1c0-1.3-1-2.1-3.1-2.1h-4.9v4.2h5C259.5,360.2,260.6,359.6,260.6,358.1L260.6,358.1z"/>
			<path class="st5" d="M272.9,363.9v-19.2h14.5v3.7h-10.3v3.9h9v3.8h-9v4h10.4v3.7H272.9z M277.9,343.2l3.1-4.8l3.6,1.6l-3.5,3.3
				H277.9z"/>
			<path class="st5" d="M310.2,363.9l-1.8-4.3h-8.1l-1.8,4.3h-4.3l8.2-19.3h3.9l8.2,19.3H310.2z M304.4,349.7l-2.5,6.2h5.1
				L304.4,349.7z"/>
			<path class="st5" d="M328.5,348.6v15.3h-4.2v-15.3h-5.8v-3.9h15.9v3.9H328.5z"/>
			<path class="st5" d="M355.2,363.9v-19.2h4.2v15.3h9.6v3.8H355.2z"/>
			<path class="st5" d="M376.9,363.9v-19.2h14.5v3.7H381v3.9h9v3.8h-9v4h10.4v3.7H376.9z"/>
			<path class="st5" d="M399.3,363.9v-3.2l10.5-12.3h-10.2v-3.7h15.6v3.2l-10.5,12.3h10.5v3.7H399.3z"/>
			<path class="st5" d="M469.5,364.2c-2.9,0-5.8-1-8.1-3.1l2.5-3c1.7,1.4,3.5,2.3,5.7,2.3c1.7,0,2.8-0.7,2.8-1.8v-0.1
				c0-1.1-0.7-1.6-3.9-2.4c-3.9-1-6.4-2.1-6.4-5.9v-0.1c0-3.5,2.8-5.8,6.7-5.8c2.8,0,5.2,0.9,7.1,2.4l-2.2,3.2
				c-1.7-1.2-3.4-1.9-5-1.9c-1.6,0-2.5,0.7-2.5,1.7v0.1c0,1.3,0.8,1.7,4.1,2.5c3.9,1,6.1,2.4,6.1,5.7v0.1
				C476.6,362.1,473.7,364.2,469.5,364.2z"/>
			<path class="st5" d="M493.2,348.6v15.3H489v-15.3h-5.8v-3.9h15.9v3.9H493.2z"/>
			<path class="st5" d="M529,363.9h-9.1v-19.2h8.9c3.9,0,6.3,1.9,6.3,5v0.1c0,2.2-1.1,3.4-2.5,4.1c2.2,0.8,3.6,2.1,3.6,4.7v0.1
				C536.2,362.2,533.3,363.9,529,363.9z M530.9,350.4c0-1.3-1-2-2.8-2H524v4.1h3.9C529.8,352.5,530.9,351.9,530.9,350.4L530.9,350.4
				z M532,358.1c0-1.3-1-2.1-3.1-2.1H524v4.2h5C530.9,360.2,532,359.6,532,358.1L532,358.1z"/>
			<path class="st5" d="M544.4,363.9v-19.2h14.5v3.7h-10.3v3.9h9v3.8h-9v4H559v3.7H544.4z"/>
			<path class="st5" d="M579,363.9l-4.1-6.1h-3.3v6.1h-4.2v-19.2h8.8c4.5,0,7.2,2.4,7.2,6.3v0.1c0,3.1-1.7,5-4.1,5.9l4.7,6.8H579z
				 M579.1,351.3c0-1.8-1.3-2.7-3.3-2.7h-4.2v5.5h4.3C578,354.1,579.1,353,579.1,351.3L579.1,351.3z"/>
			<path class="st5" d="M600.6,348.6v15.3h-4.2v-15.3h-5.8v-3.9h15.9v3.9H600.6z"/>
			<path class="st5" d="M626,363.9l-4.1-6.1h-3.3v6.1h-4.2v-19.2h8.8c4.5,0,7.2,2.4,7.2,6.3v0.1c0,3.1-1.7,5-4.1,5.9l4.7,6.8H626z
				 M626.1,351.3c0-1.8-1.3-2.7-3.3-2.7h-4.2v5.5h4.3C624.9,354.1,626.1,353,626.1,351.3L626.1,351.3z"/>
			<path class="st5" d="M653.1,363.9l-1.8-4.3h-8.1l-1.8,4.3h-4.3l8.2-19.3h3.9l8.2,19.3H653.1z M647.3,349.7l-2.5,6.2h5.1
				L647.3,349.7z"/>
			<path class="st5" d="M678.6,363.9l-9.3-12.2v12.2h-4.2v-19.2h3.9l9,11.8v-11.8h4.2v19.2H678.6z"/>
			<path class="st5" d="M699,363.9h-7.5v-19.2h7.5c6,0,10.2,4.1,10.2,9.5v0.1C709.2,359.7,705,363.9,699,363.9z M704.7,354.3
				c0-3.4-2.3-5.8-5.8-5.8h-3.3v11.6h3.3C702.4,360.1,704.7,357.8,704.7,354.3L704.7,354.3z"/>
		</g>
	</g>
</g>
</svg>
